PathFileType	4	(X/Y/Z)	Kaydara	
DataRate	CameraRate	NumFrames	NumMarkers	Units	OrigDataRate	OrigDataStartFrame	OrigNumFrames	
240.00	240.00	4	72	mm	240.00	222	355	
Frame#	Time	Hips			RightUpLeg			RightLeg			RightFoot			RightFoot_End			LeftUpLeg			LeftLeg			LeftFoot			LeftFoot_End			Spine			Spine1			Spine2			Spine3			Neck			Head			Head_End			RightShoulder			RightArm			RightForeArm			RightHand			RightHandThumb1			RightHandThumb2			RightHandThumb3			RightHandThumb3_End			RightInHandIndex			RightHandIndex1			RightHandIndex2			RightHandIndex3			RightHandIndex3_End			RightInHandMiddle			RightHandMiddle1			RightHandMiddle2			RightHandMiddle3			RightHandMiddle3_End			RightInHandRing			RightHandRing1			RightHandRing2			RightHandRing3			RightHandRing3_End			RightInHandPinky			RightHandPinky1			RightHandPinky2			RightHandPinky3			RightHandPinky3_End			LeftShoulder			LeftArm			LeftForeArm			LeftHand			LeftHandThumb1			LeftHandThumb2			LeftHandThumb3			LeftHandThumb3_End			LeftInHandIndex			LeftHandIndex1			LeftHandIndex2			LeftHandIndex3			LeftHandIndex3_End			LeftInHandMiddle			LeftHandMiddle1			LeftHandMiddle2			LeftHandMiddle3			LeftHandMiddle3_End			LeftInHandRing			LeftHandRing1			LeftHandRing2			LeftHandRing3			LeftHandRing3_End			LeftInHandPinky			LeftHandPinky1			LeftHandPinky2			LeftHandPinky3			LeftHandPinky3_End			
		X1	Y1	Z1	X2	Y2	Z2	X3	Y3	Z3	X4	Y4	Z4	X5	Y5	Z5	X6	Y6	Z6	X7	Y7	Z7	X8	Y8	Z8	X9	Y9	Z9	X10	Y10	Z10	X11	Y11	Z11	X12	Y12	Z12	X13	Y13	Z13	X14	Y14	Z14	X15	Y15	Z15	X16	Y16	Z16	X17	Y17	Z17	X18	Y18	Z18	X19	Y19	Z19	X20	Y20	Z20	X21	Y21	Z21	X22	Y22	Z22	X23	Y23	Z23	X24	Y24	Z24	X25	Y25	Z25	X26	Y26	Z26	X27	Y27	Z27	X28	Y28	Z28	X29	Y29	Z29	X30	Y30	Z30	X31	Y31	Z31	X32	Y32	Z32	X33	Y33	Z33	X34	Y34	Z34	X35	Y35	Z35	X36	Y36	Z36	X37	Y37	Z37	X38	Y38	Z38	X39	Y39	Z39	X40	Y40	Z40	X41	Y41	Z41	X42	Y42	Z42	X43	Y43	Z43	X44	Y44	Z44	X45	Y45	Z45	X46	Y46	Z46	X47	Y47	Z47	X48	Y48	Z48	X49	Y49	Z49	X50	Y50	Z50	X51	Y51	Z51	X52	Y52	Z52	X53	Y53	Z53	X54	Y54	Z54	X55	Y55	Z55	X56	Y56	Z56	X57	Y57	Z57	X58	Y58	Z58	X59	Y59	Z59	X60	Y60	Z60	X61	Y61	Z61	X62	Y62	Z62	X63	Y63	Z63	X64	Y64	Z64	X65	Y65	Z65	X66	Y66	Z66	X67	Y67	Z67	X68	Y68	Z68	X69	Y69	Z69	X70	Y70	Z70	X71	Y71	Z71	X72	Y72	Z72	

222	0.921	7921.0129	906.651	56.2195	7953.315296582658	872.6920061709293	-11.418893444395568	7879.774888459156	466.03340225244244	-74.40259015340186	7940.155670461463	100.4904119896244	-179.36142963920784	7866.6581784658465	21.592481933174465	-21.573197012465762	7895.804181623526	911.7626480216248	135.68164246426517	7840.475169691015	510.2144546339322	240.35553410598882	7768.143806366228	79.70686413149507	292.89851997260115	7644.717905902693	-5.19570894811066	174.78188374128587	7888.018073603855	1036.0526988825857	5.318784772838402	7839.430867874656	1107.3758402033852	-38.75932447225866	7783.244159819652	1176.4567951972876	-85.68200813608428	7721.421428362597	1233.6353254173357	-132.18554325389334	7654.726193478926	1294.5100232609188	-181.20247241568057	7593.115712585282	1350.0101700272785	-224.72618501566302	7470.119291799653	1441.8677595900824	-265.72974980884254	7685.298458864411	1265.8837961288777	-185.59414464473747	7701.4097413120535	1234.111391996954	-264.54434701680395	7705.754728643239	1038.0857275896296	-196.25618028639565	7700.398234383971	928.7436310874863	-220.9181558267102	7708.517800339053	938.1335757737473	-234.73886213240698	7704.081604927262	935.6843333567342	-241.86804147420634	7700.314146959211	931.1921863689842	-245.3942755254286	7696.593291944555	925.063503555786	-247.1033211821912	7708.023907942639	929.3906079651047	-231.27194165520189	7712.000494987807	918.3792023745517	-239.9331057912152	7708.401094563837	908.6633011861798	-243.70743737448194	7702.912441645729	904.62030428089	-245.3170032972907	7696.176648827637	902.6212058988904	-246.15215396117054	7705.738583773228	922.0974688158389	-226.95083205821763	7708.382911917444	907.4129972046368	-233.06202369142432	7704.132854291474	895.8818558151798	-236.57950134268856	7697.356279239728	890.5582573530768	-238.23294530905017	7689.910886211815	888.1541284009496	-239.0065304333312	7704.083532450155	917.2262978326307	-223.6921460322621	7705.195160264544	899.8388386859809	-226.38467782747313	7701.156433595935	888.8616938643052	-228.82637238506567	7694.442317167392	883.2346092485744	-230.08978812593136	7687.357619072517	880.74095241308	-230.66007912158594	7701.580206306125	911.9275557294947	-219.5656958794796	7701.262483660912	892.7111477184699	-219.5451193371135	7697.501479814614	882.5513401949587	-220.51473455657373	7692.349274739565	877.7843441582402	-220.9595056515408	7685.926686114505	875.1940498189123	-221.19030382691045	7668.583663691572	1283.5540851136573	-143.23199836469186	7655.911567984026	1276.9683531571347	-53.57977625435303	7720.957028648019	1077.4998674618046	-114.7746356385451	7737.6992281619505	925.4223070688951	-154.87835715359415	7727.648302623022	935.152028514303	-165.65031143592373	7725.122230352154	925.7561627934263	-178.94697647552394	7724.2521381094275	916.1617228705674	-187.661188500327	7724.28735329382	905.5530699057201	-194.4591148941843	7729.277510973445	926.1495883463182	-164.42487121523232	7722.457640510674	911.4288026994143	-178.1085490601407	7721.107282433604	895.616282336723	-189.00899787665514	7721.936590136038	886.3569140272764	-195.92479001953174	7723.748683462114	879.0782752120881	-201.74274061334165	7732.094395263973	918.0986337032022	-162.53018725416285	7726.965183169197	899.3872439729159	-174.85160782035476	7725.889716896105	881.1111276121943	-186.4535019450545	7727.08126172973	869.4498493337857	-194.6567096037472	7729.1568810063445	861.2474001795582	-200.9543279152987	7734.228531008947	912.8199502941135	-160.82757318359762	7731.3964751541325	891.5670256453726	-170.34862787959221	7730.874352202389	874.6225223414617	-180.14249624037217	7732.244220975346	862.835286300713	-187.88606095311656	7734.3003325655645	854.8674953320805	-193.72728394523403	7737.122337140513	906.897251361054	-158.5856528003972	7736.205864673074	883.8610854629339	-165.89081089554173	7736.4481882231275	868.8015163948805	-173.19524973622666	7737.766844673859	859.4825911183572	-178.58312772572802	7739.772082048081	852.0093279449325	-183.60768922775404
223	0.925	7921.0129	906.651	56.2195	7952.900333121388	872.5240038858449	-11.537801472282725	7879.442113032816	465.817610562018	-74.30974401624809	7940.439104405986	100.43433576926394	-179.53580741638322	7866.95864338813	21.509076865472522	-21.753268548532176	7896.205080127346	911.9285644660558	135.80424548535743	7840.9432431516	510.4000920017462	240.58387435455856	7768.318589265613	79.90195657406466	292.86531346572986	7644.981050974499	-5.093473468291336	174.72334893429837	7888.091567341633	1036.0677689436727	5.3081076303875125	7839.49179306796	1107.4234726953343	-38.70647647982071	7783.28329689505	1176.5443413880632	-85.54488900950956	7721.4252577167945	1233.7706200445698	-131.9368488908232	7654.691307586803	1294.6930046934774	-180.834713196205	7593.050554592904	1350.2402549727565	-224.24748236413737	7470.019228729682	1442.0947810389805	-265.1373492245324	7685.130910746322	1265.9471590903372	-185.25539451953736	7700.729593056127	1233.853357957232	-263.8395658333641	7705.09142328338	1038.5884423785128	-194.77757039923915	7699.2589546168365	930.2238092289906	-218.53075545279214	7707.411727827514	939.775926824539	-232.3289151775549	7703.043227278155	937.371099087613	-239.35461762588776	7699.313597379171	932.9060188967909	-242.799957873321	7695.616309592115	926.7965952692412	-244.43400993780813	7706.881217318038	931.047635304699	-228.83297595250292	7710.845219410015	920.2330678060209	-237.3621630696472	7707.270576286645	910.5812497626694	-241.0194826806139	7701.824275673956	906.5259534610329	-242.55992277169227	7695.141723655527	904.4815048984261	-243.34030012116472	7704.572589949577	923.7336718083081	-224.49124070696644	7707.19202883377	909.2299470304597	-230.46255668745846	7702.965994219389	897.7652558646715	-233.850026123131	7696.239079902554	892.4251498436837	-235.41895671474856	7688.851244007132	889.9705882627508	-236.1320675905324	7702.90099236169	918.843519511495	-221.22152207573006	7703.974769904198	901.6037747987539	-223.77962219856428	7699.95396721972	890.6807009440328	-226.1058434166871	7693.2861516761595	885.03565020642	-227.2865934402939	7686.254813211239	882.4936056873602	-227.79948043352837	7700.382140580624	913.5112572693408	-217.08482822820523	7700.0187717106255	894.4122609735182	-216.9351696225971	7696.2675857187	884.2890995001791	-217.80953678921284	7691.146958949115	879.5057811239078	-218.19266576645919	7684.770375770917	876.8707712957222	-218.37183903322253	7668.715258235731	1283.827878208988	-142.9194760019601	7656.598602640857	1277.7996996299505	-53.32095852789814	7721.3103624180185	1078.1388426321655	-113.72812765000474	7736.802672867922	926.2211216012897	-152.8134954205857	7726.803110815941	936.0788827800969	-163.4641518293701	7724.322117814868	926.7678710877339	-176.55339945028612	7723.493893430377	917.225377390203	-185.1219260510128	7723.572972818124	906.6539164199098	-191.79734006742316	7728.479925574097	927.0667728322703	-162.229304626552	7721.8270111046095	912.4821960110229	-175.68191648234676	7720.564286846963	896.7420305224778	-186.38862608502714	7721.410916967257	887.5105835159369	-193.18482971936135	7723.212282829438	880.2435465012773	-198.90437642735782	7731.318131081165	918.9905747369503	-160.3377250062704	7726.363303658332	900.3983911777206	-172.43545929143175	7725.385699396929	882.1974277290573	-183.82706336457375	7726.599216013035	870.5680115933759	-191.88652837894622	7728.663619057679	862.3773702329677	-198.07673583272248	7733.463461434076	913.6907891513351	-158.6434809823579	7730.7985524974665	892.5269878931836	-167.97215425762712	7730.363732797805	875.643913331525	-177.58422511215602	7731.7558605075355	863.8852468473364	-185.18993102983217	7733.801930819261	855.9275326876816	-190.9305362613458	7736.362248141031	907.7381827810053	-156.41569296750328	7735.603520312528	884.7660650237797	-163.55397874343805	7735.91815136054	869.7489384372402	-170.71600560347258	7737.254203729977	860.4475879703275	-176.00485970073692	7739.25121383889	852.9813727788107	-180.94117126961507
224	0.929	7921.0129	906.651	56.2195	7952.485012889747	872.3559081851558	-11.656719104819256	7879.109285578351	465.60172877931876	-74.21714824240654	7940.722180424143	100.37821772742568	-179.71046690667137	7867.258818781686	21.425659399467285	-21.93357527594969	7896.606360117065	912.0945950261197	135.92688465082654	7841.41152987534	510.58591857146604	240.81242404928378	7768.493227846709	80.09726415051988	292.8321552135853	7645.244105750972	-4.991054200708116	174.6648374018966	7888.164960952615	1036.0827497693065	5.297314794772415	7839.552414221911	1107.4709004030926	-38.653652045632086	7783.321910406771	1176.6315738938379	-85.40762651852637	7721.428355185253	1233.9055481327214	-131.68772548356432	7654.655475644732	1294.8755695281277	-180.46621990842172	7592.984279469295	1350.469900597555	-223.76776149643845	7469.918139467266	1442.3216182790193	-264.5435653542954	7684.962158836408	1266.0099104488397	-184.91596443947893	7700.046383728457	1233.5931750805917	-263.13284750191656	7704.426399338881	1039.0909241663771	-193.2936126589775	7698.118313564553	931.7045875763254	-216.1308721364686	7706.304395620728	941.418471572399	-229.9061048516331	7702.003909216841	939.0577610118879	-236.82757670125383	7698.312323517953	934.6196094137969	-240.19141106281708	7694.638777818491	928.5293887654418	-241.74988467009726	7705.737231336518	932.7050724845536	-226.3807993734861	7709.688824465516	922.0872812435799	-234.77657355976953	7706.139182333629	912.4994703347734	-238.3158819835569	7700.735443474957	908.4317578881537	-239.78675750766936	7694.106344703108	906.3418156370096	-240.51212148761567	7703.405283494135	925.3704728331821	-222.01825128508528	7705.999995395294	911.0475363800495	-227.84818981396785	7701.798247008889	899.6492374863219	-231.1045406496342	7695.12124482399	894.2924950457123	-232.58841893150054	7687.791197886965	891.7873496420594	-233.24078822000214	7701.717121709202	920.4614745318488	-218.73740358182303	7702.753175228275	903.369601158711	-221.15963987559718	7698.750522947819	892.5005732294233	-223.36940183008633	7692.129249188321	886.8374455990407	-224.46695667439602	7685.151487573129	884.2468776454215	-224.92218374259514	7699.1827282651875	915.0958438000235	-214.5904032007727	7698.773814992675	896.1144991990561	-214.31030688999547	7695.032622941132	886.028002768505	-215.08861451205559	7689.943747663467	881.2283001433689	-215.40970453761668	7683.61336089963	878.548465442926	-215.53702006525478	7668.846323003419	1284.1014893942502	-142.60638152993496	7657.286600197418	1278.6321361621194	-53.061853021989116	7721.665896450868	1078.7781910429746	-112.67813826171803	7735.906716931453	927.020149269423	-150.74016873011075	7725.958765219835	937.0059525347627	-161.2691338934228	7723.523263180281	927.7799906866863	-174.1504732522188	7722.737270441881	918.2895828785743	-182.57300971893292	7722.860583251894	907.7554331559934	-189.1256890840411	7727.683500666281	927.9841662402117	-160.0249927946706	7721.198619418629	913.5358846215059	-173.2461780689668	7720.024196895644	897.8682334960298	-183.7588113319938	7720.888373432609	888.6648521069355	-190.43516730595846	7722.679068234676	881.4095668040707	-196.0560621978327	7730.54319567195	919.8827353796747	-158.13662691193417	7725.763894664542	901.4098479931679	-170.01038240242087	7724.884899851446	883.2842127447633	-181.19134404934562	7726.120667425229	871.6868334639324	-189.10676119846815	7728.173920294362	863.5081642200399	-195.18929012888194	7732.69981358304	914.5618519933475	-156.45084047126136	7730.203160011801	893.4872557447848	-165.5869492236549	7729.856312235784	876.6657638578582	-175.01693172949442	7731.270977304239	864.935836065213	-182.4844930922776	7733.307072775953	856.9883535089194	-188.12423298910247	7735.603644591387	908.5793483707246	-154.2372879220045	7735.003722892456	885.6713566657241	-161.20860039111733	7735.3912188791755	870.696797270608	-168.22800857737002	7736.744880888299	861.4131456807579	-173.4176430231669	7738.733728708455	853.9541159964872	-178.26549264319317
225	0.933	7921.0129	906.651	56.2195	7952.069354527331	872.1877269517436	-11.775640094028534	7878.776422880323	465.3857668692628	-74.12480732052617	7941.004885402335	100.3220607203238	-179.88540052765958	7867.5586910941975	21.342233815198117	-22.114109107844282	7897.008003640325	912.2607319648073	136.04955362617616	7841.8800079924495	510.77192594253836	241.04117239244528	7768.66771392451	80.29277813254028	292.7990473410853	7645.5070580021165	-4.888455486299577	174.60635237667097	7888.238250894136	1036.0976404407577	5.286406365453858	7839.612728129594	1107.5181208860465	-38.600853620153494	7783.359997915082	1176.7184884922385	-85.27022641428927	7721.430719794554	1234.0401035164411	-131.43818305686958	7654.6186983047555	1295.0577096925167	-180.09700712671025	7592.916889198204	1350.6990970014674	-223.28704122339212	7469.816027893647	1442.5482623273372	-263.94842095841904	7684.7922092236995	1266.0720474381144	-184.5758673995824	7699.36013901091	1233.3308538130716	-262.4242172163551	7703.759692795123	1039.5931570589314	-191.80436133775754	7696.976376149437	933.1859212131009	-213.7185849064828	7705.1958698217895	943.0611587574634	-227.4705112993903	7700.963715631366	940.7442661692387	-234.2870029313343	7697.310389589512	936.332904129372	-237.56872225868884	7693.660760422868	930.2618298643091	-239.05103506489303	7704.592017155288	934.3628684666379	-223.91549222847448	7708.531379940373	923.941785619133	-232.176420950704	7705.006982563007	914.417904120605	-235.59672267234095	7699.646013643087	910.3376592572116	-236.9975976008199	7693.070578635866	908.2020812446199	-237.66771067043354	7702.236731857066	927.0078221428319	-219.53194428889248	7704.80688177525	912.8657103215043	-225.2190069630696	7700.629682939878	901.5337440710682	-228.34313286691844	7694.002842772537	896.1602370179792	-229.7414231767275	7686.730814515796	893.6043582128748	-230.33278629383625	7700.531988102235	922.0801141875166	-216.23987107959726	7701.530446482117	905.1362652470946	-218.52481442294865	7697.546171142593	894.3212569455254	-220.61713473229358	7690.971678621136	888.6399424049132	-221.63096809756698	7684.047709103186	886.0007168361689	-222.02828191081858	7697.982036923352	916.6812681801995	-212.08250136412613	7697.527683526023	897.8178126387824	-211.67061447291798	7693.796661620449	887.7679995753267	-212.35205389860158	7688.739709979606	882.9518515048782	-212.61071044658965	7682.455708857732	880.2270840339104	-212.6859377021506	7668.976851778135	1284.3749064161004	-142.2927278884606	7657.975531909577	1279.465627084382	-52.802474065862455	7722.023629031436	1079.4178882396789	-111.62471008436106	7735.011413739729	927.8193682547976	-148.65844941558018	7725.115318320043	937.9332127258642	-159.06533643099118	7722.725719622472	928.79249480354	-171.7382853316126	7721.982322494235	919.3543116119243	-180.01453296347304	7722.150237832761	908.8575918406923	-186.44426040187562	7726.888287276392	928.9017440760249	-157.81201495996874	7720.5725129953835	914.5898414524162	-170.80142404348715	7719.4870592391035	898.9948629977986	-181.1196520701924	7720.369007005893	889.819691125199	-187.67590582796456	7722.149088745334	882.5763073165435	-193.19790442672428	7729.769639431972	920.7750919929658	-155.92697182191307	7725.167002843919	902.4215887228498	-167.57646650575782	7724.387363882004	884.3714557961144	-178.54644224514348	7725.6456625375495	872.8062876395555	-186.31751181157964	7727.687833015103	864.6397547223652	-192.29209831146315	7731.937637476435	915.4331158472355	-154.24972994167808	7729.610343987157	894.447804945915	-163.193099983793	7729.35213583988	877.6880487772803	-172.44071094525322	7730.789617569533	865.9870284521494	-179.7698472462618	7732.815806247513	858.04993222004	-185.30847774181944	7734.846576325195	909.4207260386715	-152.0505150226757	7734.406518646925	886.5769376476942	-158.8547607895967	7734.867436153489	871.6450696475085	-165.73134952994832	7736.238922124073	862.379240839672	-170.82157229874474	7738.219674032407	854.9275341800083	-175.58075100499823
